<?xml version="1.0" encoding="utf-8"?>
<!-- Generator: Adobe Illustrator 23.0.1, SVG Export Plug-In . SVG Version: 6.00 Build 0)  -->
<svg version="1.1" id="Layer_1" xmlns="http://www.w3.org/2000/svg" xmlns:xlink="http://www.w3.org/1999/xlink" x="0px" y="0px"
	 viewBox="0 0 816 229" style="enable-background:new 0 0 816 229;" xml:space="preserve">
<style type="text/css">
	.st0{fill:#FFFFFF;}
	.st1{fill:#FBB03B;}
	.st2{fill:none;stroke:#39B54A;stroke-miterlimit:10;}
	.st3{fill:#39B54A;}
	.st4{font-family:'ArialMT';}
	.st5{font-size:15.2878px;}
	.st6{fill:none;stroke:#000000;stroke-width:4;stroke-miterlimit:10;}
	.st7{fill:none;stroke:#000000;stroke-miterlimit:10;}
	.st8{font-size:15.29px;}
</style>
<g>
	<rect x="66.5" y="117.5" class="st0" width="97" height="26"/>
	<path d="M163,118v25H67v-25H163 M164,117H66v27h98V117L164,117z"/>
</g>
<g>
	<ellipse class="st0" cx="115" cy="117" rx="48.5" ry="5.5"/>
	<path d="M115,112c12.5,0,24.5,0.6,33.6,1.6c11.9,1.4,14,3,14.4,3.4c-0.3,0.4-2.5,2-14.4,3.4c-9.1,1.1-21,1.6-33.6,1.6
		s-24.5-0.6-33.6-1.6c-11.9-1.4-14-3-14.4-3.4c0.3-0.4,2.5-2,14.4-3.4C90.5,112.6,102.5,112,115,112 M115,111c-27.1,0-49,2.7-49,6
		s21.9,6,49,6s49-2.7,49-6S142.1,111,115,111L115,111z"/>
</g>
<g>
	<rect x="66.5" y="135.5" class="st1" width="97" height="8"/>
	<path d="M163,136v7H67v-7H163 M164,135H66v9h98V135L164,135z"/>
</g>
<g>
	<line class="st2" x1="80.5" y1="138" x2="80.5" y2="129"/>
	<circle class="st3" cx="83.5" cy="128.5" r="2.5"/>
	<circle class="st3" cx="78" cy="128" r="2.5"/>
</g>
<g>
	<line class="st2" x1="95.5" y1="138" x2="95.5" y2="129"/>
	<circle class="st3" cx="98.5" cy="128.5" r="2.5"/>
	<circle class="st3" cx="93" cy="128" r="2.5"/>
</g>
<g>
	<line class="st2" x1="112.5" y1="139" x2="112.5" y2="130"/>
	<circle class="st3" cx="115.5" cy="129.5" r="2.5"/>
	<circle class="st3" cx="110" cy="129" r="2.5"/>
</g>
<g>
	<line class="st2" x1="129.5" y1="138" x2="129.5" y2="129"/>
	<circle class="st3" cx="132.5" cy="128.5" r="2.5"/>
	<circle class="st3" cx="127" cy="128" r="2.5"/>
</g>
<g>
	<line class="st2" x1="144.5" y1="137" x2="144.5" y2="128"/>
	<circle class="st3" cx="147.5" cy="127.5" r="2.5"/>
	<circle class="st3" cx="142" cy="127" r="2.5"/>
</g>
<text transform="matrix(0.9676 0 0 1 16.7759 79.833)" class="st4 st5">Grow Seedlings in agar for 5 days</text>
<text transform="matrix(0.9676 0 0 1 54.3188 98.1328)" class="st4 st5">Long Day Conditions</text>
<g>
	<g>
		<line class="st6" x1="193" y1="128.3" x2="252.3" y2="128.3"/>
		<g>
			<polygon points="246.5,148.3 281,128.3 246.5,108.4 			"/>
		</g>
	</g>
</g>
<g>
	<rect x="316.5" y="59" class="st7" width="202.5" height="137.5"/>
	<circle class="st7" cx="333" cy="73.1" r="9.5"/>
	<circle class="st7" cx="333" cy="95.1" r="9.5"/>
	<circle class="st7" cx="333" cy="117.1" r="9.5"/>
	<circle class="st7" cx="333" cy="139.1" r="9.5"/>
	<circle class="st7" cx="333" cy="161.1" r="9.5"/>
	<circle class="st7" cx="333" cy="183.1" r="9.5"/>
	<circle class="st7" cx="357" cy="73.1" r="9.5"/>
	<circle class="st7" cx="357" cy="95.1" r="9.5"/>
	<circle class="st7" cx="357" cy="117.1" r="9.5"/>
	<circle class="st7" cx="357" cy="139.1" r="9.5"/>
	<circle class="st7" cx="357" cy="161.1" r="9.5"/>
	<circle class="st7" cx="357" cy="183.1" r="9.5"/>
	<circle class="st7" cx="381" cy="73.1" r="9.5"/>
	<circle class="st7" cx="381" cy="95.1" r="9.5"/>
	<circle class="st7" cx="381" cy="117.1" r="9.5"/>
	<circle class="st7" cx="381" cy="139.1" r="9.5"/>
	<circle class="st7" cx="381" cy="161.1" r="9.5"/>
	<circle class="st7" cx="381" cy="183.1" r="9.5"/>
	<circle class="st7" cx="405" cy="73.1" r="9.5"/>
	<circle class="st7" cx="405" cy="95.1" r="9.5"/>
	<circle class="st7" cx="405" cy="117.1" r="9.5"/>
	<circle class="st7" cx="405" cy="139.1" r="9.5"/>
	<circle class="st7" cx="405" cy="161.1" r="9.5"/>
	<circle class="st7" cx="405" cy="183.1" r="9.5"/>
	<circle class="st7" cx="429" cy="73.1" r="9.5"/>
	<circle class="st7" cx="429" cy="95.1" r="9.5"/>
	<circle class="st7" cx="429" cy="117.1" r="9.5"/>
	<circle class="st7" cx="429" cy="139.1" r="9.5"/>
	<circle class="st7" cx="429" cy="161.1" r="9.5"/>
	<circle class="st7" cx="429" cy="183.1" r="9.5"/>
	<circle class="st7" cx="453" cy="73.1" r="9.5"/>
	<circle class="st7" cx="453" cy="95.1" r="9.5"/>
	<circle class="st7" cx="453" cy="117.1" r="9.5"/>
	<circle class="st7" cx="453" cy="139.1" r="9.5"/>
	<circle class="st7" cx="453" cy="161.1" r="9.5"/>
	<circle class="st7" cx="453" cy="183.1" r="9.5"/>
	<g>
		<line class="st2" x1="332.5" y1="80" x2="332.5" y2="71"/>
		<circle class="st3" cx="335.5" cy="70.5" r="2.5"/>
		<circle class="st3" cx="330" cy="70" r="2.5"/>
	</g>
	<g>
		<line class="st2" x1="332.5" y1="101" x2="332.5" y2="92"/>
		<circle class="st3" cx="335.5" cy="91.5" r="2.5"/>
		<circle class="st3" cx="330" cy="91" r="2.5"/>
	</g>
	<g>
		<line class="st2" x1="332.5" y1="125" x2="332.5" y2="116"/>
		<circle class="st3" cx="335.5" cy="115.5" r="2.5"/>
		<circle class="st3" cx="330" cy="115" r="2.5"/>
	</g>
	<g>
		<line class="st2" x1="332.5" y1="146" x2="332.5" y2="137"/>
		<circle class="st3" cx="335.5" cy="136.5" r="2.5"/>
		<circle class="st3" cx="330" cy="136" r="2.5"/>
	</g>
	<g>
		<line class="st2" x1="332.5" y1="169" x2="332.5" y2="160"/>
		<circle class="st3" cx="335.5" cy="159.5" r="2.5"/>
		<circle class="st3" cx="330" cy="159" r="2.5"/>
	</g>
	<g>
		<line class="st2" x1="332.5" y1="190" x2="332.5" y2="181"/>
		<circle class="st3" cx="335.5" cy="180.5" r="2.5"/>
		<circle class="st3" cx="330" cy="180" r="2.5"/>
	</g>
	<g>
		<line class="st2" x1="356.5" y1="80" x2="356.5" y2="71"/>
		<circle class="st3" cx="359.5" cy="70.5" r="2.5"/>
		<circle class="st3" cx="354" cy="70" r="2.5"/>
	</g>
	<g>
		<line class="st2" x1="356.5" y1="101" x2="356.5" y2="92"/>
		<circle class="st3" cx="359.5" cy="91.5" r="2.5"/>
		<circle class="st3" cx="354" cy="91" r="2.5"/>
	</g>
	<g>
		<line class="st2" x1="356.5" y1="125" x2="356.5" y2="116"/>
		<circle class="st3" cx="359.5" cy="115.5" r="2.5"/>
		<circle class="st3" cx="354" cy="115" r="2.5"/>
	</g>
	<g>
		<line class="st2" x1="356.5" y1="146" x2="356.5" y2="137"/>
		<circle class="st3" cx="359.5" cy="136.5" r="2.5"/>
		<circle class="st3" cx="354" cy="136" r="2.5"/>
	</g>
	<g>
		<line class="st2" x1="356.5" y1="169" x2="356.5" y2="160"/>
		<circle class="st3" cx="359.5" cy="159.5" r="2.5"/>
		<circle class="st3" cx="354" cy="159" r="2.5"/>
	</g>
	<g>
		<line class="st2" x1="356.5" y1="190" x2="356.5" y2="181"/>
		<circle class="st3" cx="359.5" cy="180.5" r="2.5"/>
		<circle class="st3" cx="354" cy="180" r="2.5"/>
	</g>
	<g>
		<line class="st2" x1="381.5" y1="80" x2="381.5" y2="71"/>
		<circle class="st3" cx="384.5" cy="70.5" r="2.5"/>
		<circle class="st3" cx="379" cy="70" r="2.5"/>
	</g>
	<g>
		<line class="st2" x1="381.5" y1="101" x2="381.5" y2="92"/>
		<circle class="st3" cx="384.5" cy="91.5" r="2.5"/>
		<circle class="st3" cx="379" cy="91" r="2.5"/>
	</g>
	<g>
		<line class="st2" x1="381.5" y1="125" x2="381.5" y2="116"/>
		<circle class="st3" cx="384.5" cy="115.5" r="2.5"/>
		<circle class="st3" cx="379" cy="115" r="2.5"/>
	</g>
	<g>
		<line class="st2" x1="381.5" y1="146" x2="381.5" y2="137"/>
		<circle class="st3" cx="384.5" cy="136.5" r="2.5"/>
		<circle class="st3" cx="379" cy="136" r="2.5"/>
	</g>
	<g>
		<line class="st2" x1="381.5" y1="169" x2="381.5" y2="160"/>
		<circle class="st3" cx="384.5" cy="159.5" r="2.5"/>
		<circle class="st3" cx="379" cy="159" r="2.5"/>
	</g>
	<g>
		<line class="st2" x1="381.5" y1="190" x2="381.5" y2="181"/>
		<circle class="st3" cx="384.5" cy="180.5" r="2.5"/>
		<circle class="st3" cx="379" cy="180" r="2.5"/>
	</g>
	<g>
		<line class="st2" x1="404.5" y1="80" x2="404.5" y2="71"/>
		<circle class="st3" cx="407.5" cy="70.5" r="2.5"/>
		<circle class="st3" cx="402" cy="70" r="2.5"/>
	</g>
	<g>
		<line class="st2" x1="404.5" y1="101" x2="404.5" y2="92"/>
		<circle class="st3" cx="407.5" cy="91.5" r="2.5"/>
		<circle class="st3" cx="402" cy="91" r="2.5"/>
	</g>
	<g>
		<line class="st2" x1="404.5" y1="125" x2="404.5" y2="116"/>
		<circle class="st3" cx="407.5" cy="115.5" r="2.5"/>
		<circle class="st3" cx="402" cy="115" r="2.5"/>
	</g>
	<g>
		<line class="st2" x1="404.5" y1="146" x2="404.5" y2="137"/>
		<circle class="st3" cx="407.5" cy="136.5" r="2.5"/>
		<circle class="st3" cx="402" cy="136" r="2.5"/>
	</g>
	<g>
		<line class="st2" x1="404.5" y1="169" x2="404.5" y2="160"/>
		<circle class="st3" cx="407.5" cy="159.5" r="2.5"/>
		<circle class="st3" cx="402" cy="159" r="2.5"/>
	</g>
	<g>
		<line class="st2" x1="404.5" y1="190" x2="404.5" y2="181"/>
		<circle class="st3" cx="407.5" cy="180.5" r="2.5"/>
		<circle class="st3" cx="402" cy="180" r="2.5"/>
	</g>
	<g>
		<line class="st2" x1="428.5" y1="81" x2="428.5" y2="72"/>
		<circle class="st3" cx="431.5" cy="71.5" r="2.5"/>
		<circle class="st3" cx="426" cy="71" r="2.5"/>
	</g>
	<g>
		<line class="st2" x1="428.5" y1="102" x2="428.5" y2="93"/>
		<circle class="st3" cx="431.5" cy="92.5" r="2.5"/>
		<circle class="st3" cx="426" cy="92" r="2.5"/>
	</g>
	<g>
		<line class="st2" x1="428.5" y1="126" x2="428.5" y2="117"/>
		<circle class="st3" cx="431.5" cy="116.5" r="2.5"/>
		<circle class="st3" cx="426" cy="116" r="2.5"/>
	</g>
	<g>
		<line class="st2" x1="428.5" y1="147" x2="428.5" y2="138"/>
		<circle class="st3" cx="431.5" cy="137.5" r="2.5"/>
		<circle class="st3" cx="426" cy="137" r="2.5"/>
	</g>
	<g>
		<line class="st2" x1="428.5" y1="170" x2="428.5" y2="161"/>
		<circle class="st3" cx="431.5" cy="160.5" r="2.5"/>
		<circle class="st3" cx="426" cy="160" r="2.5"/>
	</g>
	<g>
		<line class="st2" x1="428.5" y1="191" x2="428.5" y2="182"/>
		<circle class="st3" cx="431.5" cy="181.5" r="2.5"/>
		<circle class="st3" cx="426" cy="181" r="2.5"/>
	</g>
	<g>
		<line class="st2" x1="453.5" y1="80" x2="453.5" y2="71"/>
		<circle class="st3" cx="456.5" cy="70.5" r="2.5"/>
		<circle class="st3" cx="451" cy="70" r="2.5"/>
	</g>
	<g>
		<line class="st2" x1="453.5" y1="101" x2="453.5" y2="92"/>
		<circle class="st3" cx="456.5" cy="91.5" r="2.5"/>
		<circle class="st3" cx="451" cy="91" r="2.5"/>
	</g>
	<g>
		<line class="st2" x1="453.5" y1="125" x2="453.5" y2="116"/>
		<circle class="st3" cx="456.5" cy="115.5" r="2.5"/>
		<circle class="st3" cx="451" cy="115" r="2.5"/>
	</g>
	<g>
		<line class="st2" x1="453.5" y1="146" x2="453.5" y2="137"/>
		<circle class="st3" cx="456.5" cy="136.5" r="2.5"/>
		<circle class="st3" cx="451" cy="136" r="2.5"/>
	</g>
	<g>
		<line class="st2" x1="453.5" y1="169" x2="453.5" y2="160"/>
		<circle class="st3" cx="456.5" cy="159.5" r="2.5"/>
		<circle class="st3" cx="451" cy="159" r="2.5"/>
	</g>
	<g>
		<line class="st2" x1="453.5" y1="190" x2="453.5" y2="181"/>
		<circle class="st3" cx="456.5" cy="180.5" r="2.5"/>
		<circle class="st3" cx="451" cy="180" r="2.5"/>
	</g>
	<g>
		<circle class="st7" cx="477" cy="73.1" r="9.5"/>
		<circle class="st7" cx="477" cy="95.1" r="9.5"/>
		<circle class="st7" cx="477" cy="117.1" r="9.5"/>
		<circle class="st7" cx="477" cy="139.1" r="9.5"/>
		<circle class="st7" cx="477" cy="161.1" r="9.5"/>
		<circle class="st7" cx="477" cy="183.1" r="9.5"/>
		<g>
			<line class="st2" x1="477.5" y1="80" x2="477.5" y2="71"/>
			<circle class="st3" cx="480.5" cy="70.5" r="2.5"/>
			<circle class="st3" cx="475" cy="70" r="2.5"/>
		</g>
		<g>
			<line class="st2" x1="477.5" y1="101" x2="477.5" y2="92"/>
			<circle class="st3" cx="480.5" cy="91.5" r="2.5"/>
			<circle class="st3" cx="475" cy="91" r="2.5"/>
		</g>
		<g>
			<line class="st2" x1="477.5" y1="125" x2="477.5" y2="116"/>
			<circle class="st3" cx="480.5" cy="115.5" r="2.5"/>
			<circle class="st3" cx="475" cy="115" r="2.5"/>
		</g>
		<g>
			<line class="st2" x1="477.5" y1="146" x2="477.5" y2="137"/>
			<circle class="st3" cx="480.5" cy="136.5" r="2.5"/>
			<circle class="st3" cx="475" cy="136" r="2.5"/>
		</g>
		<g>
			<line class="st2" x1="477.5" y1="169" x2="477.5" y2="160"/>
			<circle class="st3" cx="480.5" cy="159.5" r="2.5"/>
			<circle class="st3" cx="475" cy="159" r="2.5"/>
		</g>
		<g>
			<line class="st2" x1="477.5" y1="190" x2="477.5" y2="181"/>
			<circle class="st3" cx="480.5" cy="180.5" r="2.5"/>
			<circle class="st3" cx="475" cy="180" r="2.5"/>
		</g>
	</g>
	<g>
		<circle class="st7" cx="501" cy="73.1" r="9.5"/>
		<circle class="st7" cx="501" cy="95.1" r="9.5"/>
		<circle class="st7" cx="501" cy="117.1" r="9.5"/>
		<circle class="st7" cx="501" cy="139.1" r="9.5"/>
		<circle class="st7" cx="501" cy="161.1" r="9.5"/>
		<circle class="st7" cx="501" cy="183.1" r="9.5"/>
		<g>
			<line class="st2" x1="501.5" y1="80" x2="501.5" y2="71"/>
			<circle class="st3" cx="504.5" cy="70.5" r="2.5"/>
			<circle class="st3" cx="499" cy="70" r="2.5"/>
		</g>
		<g>
			<line class="st2" x1="501.5" y1="101" x2="501.5" y2="92"/>
			<circle class="st3" cx="504.5" cy="91.5" r="2.5"/>
			<circle class="st3" cx="499" cy="91" r="2.5"/>
		</g>
		<g>
			<line class="st2" x1="501.5" y1="125" x2="501.5" y2="116"/>
			<circle class="st3" cx="504.5" cy="115.5" r="2.5"/>
			<circle class="st3" cx="499" cy="115" r="2.5"/>
		</g>
		<g>
			<line class="st2" x1="501.5" y1="146" x2="501.5" y2="137"/>
			<circle class="st3" cx="504.5" cy="136.5" r="2.5"/>
			<circle class="st3" cx="499" cy="136" r="2.5"/>
		</g>
		<g>
			<line class="st2" x1="501.5" y1="169" x2="501.5" y2="160"/>
			<circle class="st3" cx="504.5" cy="159.5" r="2.5"/>
			<circle class="st3" cx="499" cy="159" r="2.5"/>
		</g>
		<g>
			<line class="st2" x1="501.5" y1="190" x2="501.5" y2="181"/>
			<circle class="st3" cx="504.5" cy="180.5" r="2.5"/>
			<circle class="st3" cx="499" cy="180" r="2.5"/>
		</g>
	</g>
</g>
<text transform="matrix(1 0 0 1 292.3701 32.4023)" class="st4 st8">Place seedlings in liquid media with</text>
<text transform="matrix(1 0 0 1 320.3701 50.7023)" class="st4 st8">10nm of peptide for 9 days</text>
<g>
	<g>
		<line class="st6" x1="534.5" y1="128.3" x2="593.8" y2="128.3"/>
		<g>
			<polygon points="588,148.3 622.5,128.3 588,108.4 			"/>
		</g>
	</g>
</g>
<g>
	<line class="st2" x1="700" y1="137.8" x2="700" y2="122"/>
	<ellipse class="st3" cx="704.6" cy="121.1" rx="3.8" ry="4.4"/>
	<ellipse class="st3" cx="696.2" cy="120.3" rx="3.8" ry="4.4"/>
</g>
<text transform="matrix(1 0 0 1 633.5654 107.2568)" class="st4 st8">Measure Fresh Weight</text>
</svg>
